{
  "accessors": [
    {
      "bufferView": 2,
      "componentType": 5126,
      "count": 1089,
      "max": [
        0.6861590147018433,
        0.6890550255775452,
        2.060914993286133
      ],
      "min": [
        -0.6861590147018433,
        -0.4378710091114044,
        0.010877000167965889
      ],
      "type": "VEC3"
    },
    {
      "bufferView": 2,
      "byteOffset": 13068,
      "componentType": 5126,
      "count": 1089,
      "max": [
        0.9983068108558655,
        1.0,
        0.9999284744262695
      ],
      "min": [
        -0.9983068108558655,
        -1.0,
        -1.0
      ],
      "type": "VEC3"
    },
    {
      "bufferView": 1,
      "componentType": 5126,
      "count": 1089,
      "max": [
        0.9877189993858337,
        0.9930710196495056
      ],
      "min": [
        0.02528100088238716,
        0.03909299895167351
      ],
      "type": "VEC2"
    },
    {
      "bufferView": 0,
      "componentType": 5125,
      "count": 3156,
      "type": "SCALAR"
    }
  ],
  "asset": {
    "extras": {
      "author": "chicosantossaraiva (https://sketchfab.com/chicosantossaraiva)",
      "license": "CC-BY-4.0 (http://creativecommons.org/licenses/by/4.0/)",
      "source": "https://sketchfab.com/3d-models/mabel-pines-594f51badb6e402a94c749d941bdee68",
      "title": "Mabel Pines"
    },
    "generator": "Sketchfab-15.55.0",
    "version": "2.0"
  },
  "bufferViews": [
    {
      "buffer": 0,
      "byteLength": 12624,
      "name": "floatBufferViews",
      "target": 34963
    },
    {
      "buffer": 0,
      "byteLength": 8712,
      "byteOffset": 12624,
      "byteStride": 8,
      "name": "floatBufferViews",
      "target": 34962
    },
    {
      "buffer": 0,
      "byteLength": 26136,
      "byteOffset": 21336,
      "byteStride": 12,
      "name": "floatBufferViews",
      "target": 34962
    }
  ],
  "buffers": [
    {
      "byteLength": 47472,
      "uri": "scene.bin"
    }
  ],
  "images": [
    {
      "uri": "textures/mabel_baseColor.png"
    }
  ],
  "materials": [
    {
      "doubleSided": true,
      "name": "mabel",
      "pbrMetallicRoughness": {
        "baseColorTexture": {
          "index": 0
        },
        "metallicFactor": 0.0,
        "roughnessFactor": 0.8434915419926713
      }
    }
  ],
  "meshes": [
    {
      "name": "Object_0",
      "primitives": [
        {
          "attributes": {
            "NORMAL": 1,
            "POSITION": 0,
            "TEXCOORD_0": 2
          },
          "indices": 3,
          "material": 0,
          "mode": 4
        }
      ]
    }
  ],
  "nodes": [
    {
      "children": [
        1
      ],
      "matrix": [
        1.0,
        0.0,
        0.0,
        0.0,
        0.0,
        2.220446049250313e-16,
        -1.0,
        0.0,
        0.0,
        1.0,
        2.220446049250313e-16,
        0.0,
        0.0,
        0.0,
        0.0,
        1.0
      ],
      "name": "Sketchfab_model"
    },
    {
      "children": [
        2
      ],
      "name": "mabel.obj.cleaner.materialmerger.gles"
    },
    {
      "mesh": 0,
      "name": "Object_2"
    }
  ],
  "samplers": [
    {
      "magFilter": 9729,
      "minFilter": 9987,
      "wrapS": 10497,
      "wrapT": 10497
    }
  ],
  "scene": 0,
  "scenes": [
    {
      "name": "Sketchfab_Scene",
      "nodes": [
        0
      ]
    }
  ],
  "textures": [
    {
      "sampler": 0,
      "source": 0
    }
  ]
}
